<?xml version="1.0" encoding="utf-8"?>
<!-- Svg Vector Icons : http://www.onlinewebfonts.com/icon -->
<!DOCTYPE svg PUBLIC "-//W3C//DTD SVG 1.1//EN" "http://www.w3.org/Graphics/SVG/1.1/DTD/svg11.dtd">
<svg version="1.1" xmlns="http://www.w3.org/2000/svg" xmlns:xlink="http://www.w3.org/1999/xlink" x="0px" y="0px" viewBox="0 0 1000 1000" enable-background="new 0 0 1000 1000" xml:space="preserve">
<metadata> Svg Vector Icons : http://www.onlinewebfonts.com/icon </metadata>
<g><path d="M500,10C229.4,10,10,229.4,10,500c0,270.6,219.4,490,490,490c270.6,0,490-219.4,490-490C990,229.4,770.6,10,500,10z M828.5,791.2c-1.6-25.2-12.1-112-82.2-146.9c-52.1-26-32.1-6.1-96.1-32.7c-64.1-26.5-79.2-35.2-79.2-35.2l-0.6-60.8c0,0,24-18.2,31.5-75.7c15,4.3,20-17.5,20.8-31.5c0.9-13.5,8.9-55.6-9.5-51.8c3.8-28.1,6.7-53.5,5.4-67c-4.5-47.2-37.2-96.5-119.6-100.1c-70.1,3.6-115.6,53-120.2,100.2c-1.3,13.5,1.4,38.8,5.1,67c-18.3-3.8-10.4,38.4-9.6,51.9c0.9,14,5.9,35.9,20.8,31.6c7.5,57.5,31.5,75.9,31.5,75.9l-0.6,61.1c0,0-15.1,9.2-79.2,35.7c-64,26.6-43.9,5.5-96.1,31.5c-67.5,33.6-79.7,115.3-81.9,143.8c-30.6-35-55.2-74.4-73.3-117.3C72.6,616.8,61,559.3,61,500c0-59.3,11.6-116.8,34.5-170.8c22.1-52.3,53.8-99.2,94.1-139.5c40.3-40.3,87.3-72,139.5-94.1C383.2,72.6,440.7,61,500,61s116.8,11.6,170.8,34.5c52.3,22.1,99.2,53.8,139.5,94.1c40.3,40.3,72,87.3,94.1,139.5C927.4,383.2,939,440.7,939,500s-11.6,116.8-34.5,170.8C885.8,715,860.3,755.4,828.5,791.2L828.5,791.2z"/></g>
</svg>